# xmcd
# 
# Track frame offsets:
#     182
#     14530
#     28282
#     42065
#     54910
#     68942
#     80097
#     90225
#     101795
#     120637
#     131237
#     154567
#     172980
#     187052
#     211132
#     229005
# 
# Disc length: 3229
# 
# Revision: 13
# Processed by: cddbd v1.5.2PL0 Copyright (c) Steve Scherf et al.
# Submitted via: fre:ac v1.0.31
# 
DISCID=d30c9b10
DTITLE=John Lee Hooker - The Very Best Of John Lee Hooker
DYEAR=1995
DGENRE=Blues
TTITLE0=Boogie Chillen’
TTITLE1=Crawlin’ King Snake
TTITLE2=Hobo Blues
TTITLE3=Huckle Up Baby
TTITLE4=I’m In The Mood
TTITLE5=I Need Some Money
TTITLE6=Dimples
TTITLE7=Boom Boom
TTITLE8=Shake It Baby
TTITLE9=Big Legs, Tight Skirt
TTITLE10=It Serves You Right To Suffer
TTITLE11=You Know, I Know
TTITLE12=One Bourbon, One Scotch, One Beer
TTITLE13=I’m Bad Like Jesse James
TTITLE14=Burning Hell
TTITLE15=Terraplane Blues – with Roy Rogers
EXTD=DISC: 1\nUPC: 081227191528\nLABEL: Rhino\nENSORECORD: 123686\nction to the seminal bluesman, prntense, individual and includes all the best-known songs....a value package..."\n YEAR: 1995
EXTT0=
EXTT1=
EXTT2=
EXTT3=
EXTT4=
EXTT5=
EXTT6=
EXTT7=
EXTT8=
EXTT9=
EXTT10=
EXTT11=
EXTT12=
EXTT13=
EXTT14=
EXTT15=
PLAYORDER=
